<svg viewBox="0 0 274 77" fill="none" xmlns="http://www.w3.org/2000/svg">
<g clip-path="url(#clip0_302_2)">
<path d="M170.144 23L174.128 13.82H174.224L178.208 23H176.192L173.648 16.544L174.908 15.68L171.86 23H170.144ZM172.868 19.808H175.52L176.132 21.272H172.328L172.868 19.808ZM181.295 14.168H183.035V21.32H187.187V23H181.295V14.168ZM190.783 14.168H196.807V15.848H192.523V17.732H196.315V19.412H192.523V21.32H196.975V23H190.783V14.168ZM208.483 23.36L201.787 17.312L202.303 17.6L202.339 23H200.575V13.82H200.647L207.199 19.844L206.815 19.676L206.779 14.168H208.531V23.36H208.483ZM217.322 16.304C216.986 16.12 216.642 15.968 216.29 15.848C215.946 15.728 215.622 15.668 215.318 15.668C214.942 15.668 214.646 15.744 214.43 15.896C214.214 16.048 214.106 16.276 214.106 16.58C214.106 16.788 214.186 16.976 214.346 17.144C214.514 17.304 214.726 17.448 214.982 17.576C215.246 17.704 215.518 17.82 215.798 17.924C216.054 18.02 216.306 18.136 216.554 18.272C216.81 18.4 217.038 18.564 217.238 18.764C217.438 18.956 217.598 19.2 217.718 19.496C217.838 19.784 217.898 20.14 217.898 20.564C217.898 21.012 217.782 21.428 217.55 21.812C217.318 22.196 216.978 22.508 216.53 22.748C216.082 22.98 215.53 23.096 214.874 23.096C214.538 23.096 214.194 23.064 213.842 23C213.498 22.928 213.158 22.824 212.822 22.688C212.486 22.544 212.162 22.364 211.85 22.148L212.618 20.792C212.826 20.944 213.05 21.08 213.29 21.2C213.538 21.312 213.786 21.4 214.034 21.464C214.282 21.528 214.51 21.56 214.718 21.56C214.926 21.56 215.134 21.532 215.342 21.476C215.558 21.412 215.734 21.308 215.87 21.164C216.014 21.02 216.086 20.82 216.086 20.564C216.086 20.388 216.026 20.228 215.906 20.084C215.794 19.94 215.638 19.808 215.438 19.688C215.246 19.568 215.034 19.464 214.802 19.376C214.53 19.272 214.25 19.152 213.962 19.016C213.674 18.88 213.402 18.716 213.146 18.524C212.898 18.324 212.694 18.08 212.534 17.792C212.382 17.496 212.306 17.136 212.306 16.712C212.306 16.2 212.418 15.756 212.642 15.38C212.874 15.004 213.198 14.708 213.614 14.492C214.03 14.268 214.51 14.144 215.054 14.12C215.766 14.12 216.342 14.204 216.782 14.372C217.23 14.54 217.63 14.74 217.982 14.972L217.322 16.304ZM170.144 41L174.128 31.82H174.224L178.208 41H176.192L173.648 34.544L174.908 33.68L171.86 41H170.144ZM172.868 37.808H175.52L176.132 39.272H172.328L172.868 37.808ZM181.295 32.168H183.035V39.32H187.187V41H181.295V32.168ZM190.783 32.168H196.807V33.848H192.523V35.732H196.315V37.412H192.523V39.32H196.975V41H190.783V32.168ZM202.339 35.312L202.291 35.756L202.555 35.42L205.435 32.168H207.691L204.043 36.128L207.703 41H205.495L202.771 37.232L202.339 37.664V41H200.575V32.168H202.339V35.312ZM215.54 34.304C215.204 34.12 214.86 33.968 214.508 33.848C214.164 33.728 213.84 33.668 213.536 33.668C213.16 33.668 212.864 33.744 212.648 33.896C212.432 34.048 212.324 34.276 212.324 34.58C212.324 34.788 212.404 34.976 212.564 35.144C212.732 35.304 212.944 35.448 213.2 35.576C213.464 35.704 213.736 35.82 214.016 35.924C214.272 36.02 214.524 36.136 214.772 36.272C215.028 36.4 215.256 36.564 215.456 36.764C215.656 36.956 215.816 37.2 215.936 37.496C216.056 37.784 216.116 38.14 216.116 38.564C216.116 39.012 216 39.428 215.768 39.812C215.536 40.196 215.196 40.508 214.748 40.748C214.3 40.98 213.748 41.096 213.092 41.096C212.756 41.096 212.412 41.064 212.06 41C211.716 40.928 211.376 40.824 211.04 40.688C210.704 40.544 210.38 40.364 210.068 40.148L210.836 38.792C211.044 38.944 211.268 39.08 211.508 39.2C211.756 39.312 212.004 39.4 212.252 39.464C212.5 39.528 212.728 39.56 212.936 39.56C213.144 39.56 213.352 39.532 213.56 39.476C213.776 39.412 213.952 39.308 214.088 39.164C214.232 39.02 214.304 38.82 214.304 38.564C214.304 38.388 214.244 38.228 214.124 38.084C214.012 37.94 213.856 37.808 213.656 37.688C213.464 37.568 213.252 37.464 213.02 37.376C212.748 37.272 212.468 37.152 212.18 37.016C211.892 36.88 211.62 36.716 211.364 36.524C211.116 36.324 210.912 36.08 210.752 35.792C210.6 35.496 210.524 35.136 210.524 34.712C210.524 34.2 210.636 33.756 210.86 33.38C211.092 33.004 211.416 32.708 211.832 32.492C212.248 32.268 212.728 32.144 213.272 32.12C213.984 32.12 214.56 32.204 215 32.372C215.448 32.54 215.848 32.74 216.2 32.972L215.54 34.304ZM218.624 41L222.608 31.82H222.704L226.688 41H224.672L222.128 34.544L223.388 33.68L220.34 41H218.624ZM221.348 37.808H224L224.612 39.272H220.808L221.348 37.808ZM237.684 41.36L230.988 35.312L231.504 35.6L231.54 41H229.776V31.82H229.848L236.4 37.844L236.016 37.676L235.98 32.168H237.732V41.36H237.684ZM241.806 41V32.168H244.446C245.334 32.168 246.09 32.3 246.714 32.564C247.338 32.828 247.838 33.18 248.214 33.62C248.598 34.06 248.878 34.552 249.054 35.096C249.23 35.64 249.318 36.188 249.318 36.74C249.318 37.396 249.198 37.988 248.958 38.516C248.726 39.036 248.406 39.484 247.998 39.86C247.59 40.228 247.118 40.512 246.582 40.712C246.046 40.904 245.478 41 244.878 41H241.806ZM243.546 39.32H244.578C245.018 39.32 245.418 39.264 245.778 39.152C246.138 39.032 246.446 38.86 246.702 38.636C246.966 38.412 247.166 38.132 247.302 37.796C247.446 37.452 247.518 37.06 247.518 36.62C247.518 36.044 247.422 35.576 247.23 35.216C247.046 34.848 246.814 34.564 246.534 34.364C246.262 34.164 245.982 34.028 245.694 33.956C245.406 33.876 245.162 33.836 244.962 33.836H243.546V39.32ZM255.54 32.168C256.092 32.168 256.584 32.24 257.016 32.384C257.448 32.52 257.808 32.72 258.096 32.984C258.392 33.24 258.616 33.552 258.768 33.92C258.92 34.28 258.996 34.688 258.996 35.144C258.996 35.504 258.94 35.864 258.828 36.224C258.724 36.584 258.548 36.912 258.3 37.208C258.06 37.504 257.74 37.744 257.34 37.928C256.94 38.104 256.444 38.192 255.852 38.192H254.604V41H252.864V32.168H255.54ZM255.84 36.512C256.104 36.512 256.324 36.468 256.5 36.38C256.676 36.292 256.812 36.18 256.908 36.044C257.012 35.908 257.084 35.768 257.124 35.624C257.172 35.472 257.196 35.332 257.196 35.204C257.196 35.108 257.18 34.988 257.148 34.844C257.124 34.692 257.068 34.54 256.98 34.388C256.892 34.236 256.756 34.108 256.572 34.004C256.396 33.9 256.156 33.848 255.852 33.848H254.604V36.512H255.84ZM257.472 37.592L259.656 41H257.628L255.396 37.64L257.472 37.592ZM267.607 34.304C267.271 34.12 266.927 33.968 266.575 33.848C266.231 33.728 265.907 33.668 265.603 33.668C265.227 33.668 264.931 33.744 264.715 33.896C264.499 34.048 264.391 34.276 264.391 34.58C264.391 34.788 264.471 34.976 264.631 35.144C264.799 35.304 265.011 35.448 265.267 35.576C265.531 35.704 265.803 35.82 266.083 35.924C266.339 36.02 266.591 36.136 266.839 36.272C267.095 36.4 267.323 36.564 267.523 36.764C267.723 36.956 267.883 37.2 268.003 37.496C268.123 37.784 268.183 38.14 268.183 38.564C268.183 39.012 268.067 39.428 267.835 39.812C267.603 40.196 267.263 40.508 266.815 40.748C266.367 40.98 265.815 41.096 265.159 41.096C264.823 41.096 264.479 41.064 264.127 41C263.783 40.928 263.443 40.824 263.107 40.688C262.771 40.544 262.447 40.364 262.135 40.148L262.903 38.792C263.111 38.944 263.335 39.08 263.575 39.2C263.823 39.312 264.071 39.4 264.319 39.464C264.567 39.528 264.795 39.56 265.003 39.56C265.211 39.56 265.419 39.532 265.627 39.476C265.843 39.412 266.019 39.308 266.155 39.164C266.299 39.02 266.371 38.82 266.371 38.564C266.371 38.388 266.311 38.228 266.191 38.084C266.079 37.94 265.923 37.808 265.723 37.688C265.531 37.568 265.319 37.464 265.087 37.376C264.815 37.272 264.535 37.152 264.247 37.016C263.959 36.88 263.687 36.716 263.431 36.524C263.183 36.324 262.979 36.08 262.819 35.792C262.667 35.496 262.591 35.136 262.591 34.712C262.591 34.2 262.703 33.756 262.927 33.38C263.159 33.004 263.483 32.708 263.899 32.492C264.315 32.268 264.795 32.144 265.339 32.12C266.051 32.12 266.627 32.204 267.067 32.372C267.515 32.54 267.915 32.74 268.267 32.972L267.607 34.304ZM177.764 58.268C177.668 58.348 177.488 58.456 177.224 58.592C176.968 58.728 176.652 58.848 176.276 58.952C175.9 59.056 175.484 59.104 175.028 59.096C174.332 59.08 173.708 58.956 173.156 58.724C172.612 58.484 172.148 58.16 171.764 57.752C171.388 57.344 171.1 56.876 170.9 56.348C170.7 55.82 170.6 55.256 170.6 54.656C170.6 53.984 170.7 53.368 170.9 52.808C171.108 52.248 171.4 51.764 171.776 51.356C172.16 50.948 172.616 50.632 173.144 50.408C173.672 50.184 174.256 50.072 174.896 50.072C175.488 50.072 176.012 50.152 176.468 50.312C176.924 50.472 177.296 50.644 177.584 50.828L176.9 52.472C176.7 52.32 176.432 52.164 176.096 52.004C175.768 51.836 175.388 51.752 174.956 51.752C174.62 51.752 174.296 51.824 173.984 51.968C173.68 52.104 173.408 52.3 173.168 52.556C172.936 52.812 172.752 53.112 172.616 53.456C172.48 53.792 172.412 54.16 172.412 54.56C172.412 54.984 172.472 55.372 172.592 55.724C172.72 56.076 172.9 56.38 173.132 56.636C173.364 56.884 173.64 57.076 173.96 57.212C174.288 57.348 174.656 57.416 175.064 57.416C175.536 57.416 175.94 57.34 176.276 57.188C176.612 57.036 176.868 56.876 177.044 56.708L177.764 58.268ZM173.9 47.516L174.836 48.404L174.428 48.524L175.376 47.516H176.888L174.668 49.724H174.656L172.388 47.516H173.9ZM181.307 50.168H187.331V51.848H183.047V53.732H186.839V55.412H183.047V57.32H187.499V59H181.307V50.168ZM193.775 50.168C194.327 50.168 194.819 50.24 195.251 50.384C195.683 50.52 196.043 50.72 196.331 50.984C196.627 51.24 196.851 51.552 197.003 51.92C197.155 52.28 197.231 52.688 197.231 53.144C197.231 53.504 197.175 53.864 197.063 54.224C196.959 54.584 196.783 54.912 196.535 55.208C196.295 55.504 195.975 55.744 195.575 55.928C195.175 56.104 194.679 56.192 194.087 56.192H192.839V59H191.099V50.168H193.775ZM194.075 54.512C194.339 54.512 194.559 54.468 194.735 54.38C194.911 54.292 195.047 54.18 195.143 54.044C195.247 53.908 195.319 53.768 195.359 53.624C195.407 53.472 195.431 53.332 195.431 53.204C195.431 53.108 195.415 52.988 195.383 52.844C195.359 52.692 195.303 52.54 195.215 52.388C195.127 52.236 194.991 52.108 194.807 52.004C194.631 51.9 194.391 51.848 194.087 51.848H192.839V54.512H194.075ZM195.707 55.592L197.891 59H195.863L193.631 55.64L195.707 55.592ZM209.034 59.36L202.338 53.312L202.854 53.6L202.89 59H201.126V49.82H201.198L207.75 55.844L207.366 55.676L207.33 50.168H209.082V59.36H209.034ZM204.81 61.808L203.946 61.232C204.122 61.064 204.246 60.816 204.318 60.488C204.398 60.168 204.41 59.868 204.354 59.588L205.818 59.6C205.866 59.824 205.85 60.076 205.77 60.356C205.698 60.644 205.578 60.916 205.41 61.172C205.25 61.436 205.05 61.648 204.81 61.808ZM212.16 59L216.144 49.82H216.24L220.224 59H218.208L215.664 52.544L216.924 51.68L213.876 59H212.16ZM214.884 55.808H217.536L218.148 57.272H214.344L214.884 55.808Z" fill="currentColor"/>
<rect x="151" y="24" width="1" height="29" fill="currentColor"/>
<path fill-rule="evenodd" clip-rule="evenodd" d="M40.7215 73.1857C42.2736 73.1857 54.947 30.0714 54.947 30.0714C56.1043 30.0308 58.2121 29.8109 60.2171 29.6016C62.7525 29.3371 65.1236 29.0897 65.2007 29.2437C62.5338 36.4627 52.7534 65.323 60.1428 66.0127C61.5645 66.1454 63.3721 64.9641 64.4649 64.2499C64.9272 63.9478 65.2616 63.7293 65.3846 63.7293C65.5217 63.7293 65.684 64.0228 65.9083 64.4285C66.3612 65.2474 67.0667 66.5232 68.3273 66.764C71.1901 67.3108 76.1078 59.2592 79.741 53.3108C81.8849 49.8005 83.5816 47.0226 84.1447 47.1762C84.7303 47.3359 84.0394 49.9248 83.171 53.1788C81.7893 58.3559 79.9584 65.2165 82.1042 66.6565C83.5361 67.6174 86.6465 62.7231 89.4695 58.2808C91.757 54.6812 93.8559 51.3784 94.7203 51.7283C95.2029 51.8248 94.704 53.8223 94.0423 56.4711C92.8129 61.3926 91.0217 68.5627 93.9212 69.9671C97.8039 71.4959 101.621 62.6802 104.367 56.3407C105.86 52.8919 107.036 50.1759 107.733 50.2569C109.71 50.4868 111.394 56.9085 111.394 56.9085C108.865 58.6558 96.6341 74.2544 106.382 75.8986C114.107 77.2015 114.567 65.6602 113.739 57.8282C113.739 57.8282 115.751 55.2382 135.431 49.3067C136.442 47.9272 123.43 51.4678 113.36 55.9739C113.36 55.2382 110.704 46.0111 107.348 46.0111C105.834 46.0111 103.645 51.2965 101.445 56.6082C99.1015 62.2672 96.7455 67.9561 95.1801 67.3158C93.5713 66.6576 95.382 61.0184 97.0894 55.7007C98.6027 50.9874 100.035 46.5267 98.9331 46.0111C94.0808 43.7408 88.6776 54.2733 85.7587 59.9631C84.6669 62.0913 83.9227 63.542 83.6849 63.3918C83.3599 63.1866 84.2924 60.0733 85.4593 56.1777C87.429 49.6016 90.0665 40.7962 88.4495 39.9877C85.8152 38.6705 79.4072 48.7419 74.7308 56.0917C72.2244 60.0311 70.2153 63.1887 69.5514 63.3918C67.8755 63.9046 67.9748 62.5628 68.0222 61.9215C68.0286 61.8348 68.0341 61.7609 68.0341 61.7061C75.3544 55.3148 83.9894 36.6215 77.828 35.6655C69.8273 34.424 65.1087 55.0389 65.3846 60.2807C64.6489 61.2463 62.3958 62.8097 60.8325 62.8097C59.0852 62.8097 59.7897 48.7856 69.2929 28.9219C77.6614 27.2666 96.0077 8.87426 87.1794 4.46013C79.3974 0.569111 72.7556 13.0939 67.2969 23.3876C66.93 24.0795 66.5684 24.7613 66.2122 25.4273C65.9909 25.8412 57.0548 26.0405 55.7214 26.0405C55.7214 26.0405 65.0095 1.8299 61.8368 0.121544C58.6642 -1.58681 47.2364 15.0971 41.2835 26.0405C-5.01912 26.0405 -5.08656 62.1353 6.23598 70.4729C9.92008 73.1857 18.7356 69.4619 44.7392 30.0714H52.1881C52.1881 30.0714 38.0648 73.1857 40.7215 73.1857ZM53.217 25.8716C51.0099 25.9176 48.435 25.9176 46.8257 25.8716C46.8257 25.8716 59.0433 4.16788 59.6297 4.16787C60.2162 4.16787 53.217 25.8716 53.217 25.8716ZM38.3479 30.1634C9.88581 26.9598 -5.12072 54.4305 7.11975 66.1958C10.4376 69.3849 26.5063 51.4985 38.3479 30.1634ZM76.6498 38.21C72.5115 37.0605 67.3617 57.338 67.8215 58.0277C69.063 58.0277 80.7881 39.3595 76.6498 38.21ZM112.084 58.9777C109.693 60.6943 100.726 71.5764 107.118 73.0018C113.509 74.4272 112.543 60.9549 112.084 58.9777ZM70.379 24.7221C72.862 19.8941 80.6327 5.06665 84.4032 7.66325C89.2771 11.0198 73.7816 24.7221 70.379 24.7221Z" fill="currentColor"/>
</g>
</svg>
