<svg viewBox="0 0 100 100" fill="none" xmlns="http://www.w3.org/2000/svg">
<mask id="path-1-outside-1_164_101" maskUnits="userSpaceOnUse" x="16" y="10" width="69" height="80" fill="black">
<rect fill="white" x="16" y="10" width="69" height="80"/>
<path d="M44.6895 16.0006C44.6999 15.9971 44.7076 16.0102 44.6995 16.0175C37.5209 22.4271 33 31.7512 33 42.1321C33.0002 61.4619 48.6701 77.1321 68 77.1321C71.9222 77.1321 75.6936 76.4864 79.214 75.2964C79.2244 75.2929 79.232 75.3061 79.2239 75.3133C73.0447 80.7985 64.9124 84.1321 56 84.1321C36.6701 84.1321 21.0002 68.4619 21 49.1321C21 33.7602 30.91 20.7034 44.6895 16.0006Z"/>
</mask>
<path d="M33 42.1321L28 42.1321L28 42.1322L33 42.1321ZM21 49.1321L16 49.1321L16 49.1322L21 49.1321ZM79.214 75.2964L80.8151 80.0331L79.214 75.2964ZM79.2239 75.3133L82.5432 79.0526L79.2239 75.3133ZM44.6995 16.0175L48.0296 19.7471L44.6995 16.0175ZM44.6895 16.0006L43.0745 11.2686L44.6895 16.0006ZM44.6995 16.0175L41.3694 12.2878C33.1738 19.6054 28 30.267 28 42.1321H33H38C38 33.2354 41.8679 25.2487 48.0296 19.7471L44.6995 16.0175ZM33 42.1321L28 42.1322C28.0002 64.2233 45.9087 82.1321 68 82.1321V77.1321V72.1321C51.4316 72.1321 38.0002 58.7005 38 42.1321L33 42.1321ZM68 77.1321V82.1321C72.4742 82.1321 76.7861 81.395 80.8151 80.0331L79.214 75.2964L77.613 70.5597C74.601 71.5777 71.3701 72.1321 68 72.1321V77.1321ZM79.2239 75.3133L75.9046 71.574C70.604 76.2793 63.6412 79.1321 56 79.1321V84.1321V89.1321C66.1835 89.1321 75.4854 85.3177 82.5432 79.0526L79.2239 75.3133ZM56 84.1321V79.1321C39.4316 79.1321 26.0001 65.7005 26 49.1321L21 49.1321L16 49.1322C16.0002 71.2233 33.9087 89.1321 56 89.1321V84.1321ZM21 49.1321H26C26 35.9641 34.4873 24.7657 46.3045 20.7326L44.6895 16.0006L43.0745 11.2686C27.3328 16.6411 16 31.5563 16 49.1321H21ZM79.214 75.2964L80.8151 80.0331C75.6562 81.7769 71.8406 75.1816 75.9046 71.574L79.2239 75.3133L82.5432 79.0526C86.6234 75.4306 82.7926 68.8089 77.613 70.5597L79.214 75.2964ZM44.6995 16.0175L48.0296 19.7471C52.2111 16.0136 48.1073 9.55095 43.0745 11.2686L44.6895 16.0006L46.3045 20.7326C41.2924 22.4432 37.2041 16.0069 41.3694 12.2878L44.6995 16.0175Z" fill="currentColor" mask="url(#path-1-outside-1_164_101)"/>
</svg>
