<svg viewBox="0 0 255 143" xmlns="http://www.w3.org/2000/svg">
<g clip-path="url(#clip0_2_495)">
<path fill-rule="evenodd" clip-rule="evenodd" d="M76.6206 137.705C79.541 137.705 103.387 56.5817 103.387 56.5817C105.565 56.5053 109.531 56.0915 113.303 55.6978C118.074 55.2 122.535 54.7345 122.68 55.0244C117.662 68.6075 99.2596 122.91 113.163 124.208C115.838 124.458 119.24 122.235 121.296 120.891C122.166 120.323 122.795 119.912 123.026 119.912C123.284 119.912 123.59 120.464 124.012 121.227C124.864 122.768 126.191 125.169 128.563 125.622C133.95 126.651 143.203 111.501 150.039 100.308C154.073 93.7036 157.265 88.4768 158.325 88.7658C159.427 89.0663 158.127 93.9375 156.493 100.06C153.893 109.801 150.448 122.71 154.485 125.419C157.18 127.227 163.032 118.018 168.344 109.66C172.648 102.887 176.597 96.6726 178.224 97.3309C179.132 97.5125 178.193 101.271 176.948 106.255C174.635 115.515 171.265 129.006 176.72 131.649C184.026 134.525 191.209 117.938 196.374 106.009C199.184 99.5203 201.397 94.41 202.708 94.5624C206.428 94.9949 209.596 107.078 209.596 107.078C204.838 110.366 181.825 139.716 200.166 142.809C214.701 145.261 215.566 123.545 214.009 108.808C214.009 108.808 217.794 103.935 254.823 92.7744C256.727 90.1789 232.242 96.8407 213.295 105.319C213.295 103.935 208.299 86.5736 201.983 86.5736C199.135 86.5736 195.016 96.5183 190.877 106.513C186.467 117.161 182.034 127.865 179.089 126.66C176.062 125.422 179.469 114.811 182.681 104.805C185.529 95.9368 188.224 87.5437 186.15 86.5736C177.021 82.3018 166.854 102.119 161.362 112.825C159.308 116.83 157.907 119.559 157.46 119.277C156.848 118.891 158.603 113.033 160.798 105.703C164.505 93.3293 169.467 76.7612 166.425 75.2399C161.468 72.7616 149.411 91.7117 140.612 105.541C135.896 112.953 132.116 118.894 130.867 119.277C127.713 120.242 127.9 117.717 127.989 116.51C128.001 116.347 128.011 116.208 128.011 116.105C141.785 104.079 158.033 68.9063 146.439 67.1074C131.386 64.7715 122.507 104.637 123.026 114.5C121.642 116.317 117.403 118.181 114.461 118.181C111.174 118.181 112.499 91.7939 130.38 54.4188C146.126 51.3042 180.646 16.6976 164.035 8.39209C149.392 1.07083 136.895 24.6372 126.624 44.0056C125.934 45.3074 125.254 46.5903 124.584 47.8435C124.167 48.6222 107.353 48.9972 104.844 48.9972C104.844 48.9972 122.321 3.44309 116.351 0.228695C110.381 -2.9857 88.8791 28.4065 77.6781 48.9972C-9.44387 48.9972 -9.57076 116.912 11.7335 132.6C18.6654 137.705 35.2525 130.698 84.1804 56.5817H98.1961C98.1961 56.5817 71.6219 137.705 76.6206 137.705ZM100.132 48.6794C95.9791 48.7659 91.1343 48.7659 88.1062 48.6794C88.1062 48.6794 111.095 7.84214 112.198 7.84213C113.302 7.84213 100.132 48.6794 100.132 48.6794ZM72.1546 56.7547C18.6009 50.7269 -9.63503 102.415 13.3964 124.553C19.6392 130.553 49.8737 96.8985 72.1546 56.7547ZM144.223 71.8951C138 69.2825 125.635 110.702 126.5 112C128.836 112 155.5 78 144.223 71.8951ZM210.894 110.971C206.395 114.201 189.525 134.677 201.55 137.359C213.576 140.041 211.759 114.691 210.894 110.971ZM132.424 46.5165C137.096 37.4323 151.717 9.53325 158.811 14.419C167.982 20.7346 138.826 46.5165 132.424 46.5165Z" fill="currentColor"/>
</g>
<defs>
<clipPath id="clip0_2_495">
<rect width="255" height="143"/>
</clipPath>
</defs>
</svg>
